<?xml version="1.0" standalone="no"?>
<!DOCTYPE svg PUBLIC "-//W3C//DTD SVG 20010904//EN"
 "http://www.w3.org/TR/2001/REC-SVG-20010904/DTD/svg10.dtd">
<svg version="1.0" xmlns="http://www.w3.org/2000/svg"
 width="889.000000pt" height="889.000000pt" viewBox="0 0 889.000000 889.000000"
 preserveAspectRatio="xMidYMid meet">
<metadata>
Created by potrace 1.14, written by Peter Selinger 2001-2017
</metadata>
<g transform="translate(0.000000,889.000000) scale(0.100000,-0.100000)"
fill="#000000" stroke="none">
<path d="M4199 8886 c-2 -2 -47 -6 -100 -10 -53 -4 -107 -8 -120 -11 -13 -2
-51 -6 -84 -10 -33 -3 -100 -13 -150 -21 -117 -19 -125 -21 -155 -28 -14 -3
-36 -8 -50 -10 -232 -40 -657 -177 -920 -298 -92 -42 -274 -132 -280 -138 -3
-3 -18 -12 -35 -20 -179 -89 -512 -318 -739 -508 -128 -108 -407 -387 -511
-512 -76 -91 -235 -299 -273 -356 -160 -243 -259 -415 -356 -624 -54 -116 -67
-145 -101 -225 -20 -46 -102 -275 -115 -320 -6 -22 -14 -47 -17 -55 -3 -8 -7
-19 -9 -25 -1 -5 -18 -71 -38 -145 -53 -203 -93 -413 -111 -581 -3 -30 -8 -63
-10 -74 -19 -95 -27 -614 -12 -810 12 -157 21 -227 52 -410 33 -188 31 -182
71 -335 19 -74 36 -142 38 -150 24 -96 133 -395 197 -542 46 -106 176 -366
199 -398 11 -16 20 -31 20 -34 0 -18 246 -395 287 -441 10 -11 26 -32 36 -47
71 -111 431 -498 593 -639 84 -72 145 -122 193 -158 25 -19 48 -38 51 -41 26
-32 363 -253 507 -333 100 -57 357 -187 367 -187 5 0 60 -24 151 -65 54 -24
338 -124 357 -125 4 -1 27 -8 50 -16 39 -13 177 -51 221 -60 10 -2 26 -5 35
-8 9 -3 29 -7 45 -10 15 -3 35 -7 45 -10 9 -3 31 -8 47 -11 99 -17 206 -35
245 -40 25 -3 77 -10 115 -15 230 -31 819 -34 971 -6 11 2 50 7 89 11 38 4 72
8 75 10 3 1 30 6 60 9 61 7 107 15 130 21 8 2 31 7 50 10 30 5 82 16 143 31 9
2 25 6 35 8 9 2 69 18 132 36 63 17 120 32 125 34 32 7 196 65 295 103 360
139 663 303 1018 551 49 35 246 192 312 248 66 58 359 351 414 414 26 30 55
64 65 75 25 28 189 242 231 301 65 93 177 271 235 374 55 98 185 354 185 365
0 2 11 28 24 57 74 159 204 542 231 678 2 8 8 35 15 60 7 25 14 56 16 70 3 14
7 32 9 40 2 8 7 31 10 50 3 19 12 71 20 115 19 104 21 117 40 275 20 157 27
651 12 820 -12 141 -29 278 -47 380 -5 30 -12 71 -15 90 -4 29 -11 63 -20 100
-1 3 -7 32 -14 65 -22 102 -82 319 -102 370 -4 11 -15 45 -25 75 -19 62 -96
264 -125 327 -10 24 -19 45 -19 48 0 11 -167 341 -194 383 -14 23 -26 44 -26
48 0 3 -13 26 -30 51 -16 24 -30 46 -30 49 0 4 -153 236 -171 259 -5 5 -50 64
-101 130 -51 66 -104 133 -118 149 -14 17 -43 50 -64 75 -22 26 -114 120 -205
211 -225 225 -438 397 -710 575 -71 47 -132 85 -134 85 -3 0 -34 17 -68 39
-89 53 -392 204 -484 241 -26 10 -112 44 -150 60 -91 37 -451 150 -525 164
-14 2 -47 10 -75 16 -57 13 -79 18 -115 25 -14 3 -36 7 -50 10 -30 6 -128 22
-190 30 -25 3 -52 8 -60 10 -8 2 -51 7 -95 11 -44 4 -93 8 -110 11 -38 4 -602
13 -606 9z"/>
</g>
</svg>
