<?xml version="1.0" encoding="utf-8"?>
<!-- Generator: Adobe Illustrator 24.1.2, SVG Export Plug-In . SVG Version: 6.00 Build 0)  -->
<svg version="1.1" id="Слой_1" xmlns="http://www.w3.org/2000/svg" xmlns:xlink="http://www.w3.org/1999/xlink" x="0px" y="0px"
	 viewBox="0 0 142.5 142.5" style="enable-background:new 0 0 142.5 142.5;" xml:space="preserve">
<style type="text/css">
	.st0{fill:#232323;}
	.st1{fill:#09FF6F;}
</style>
<circle class="st0" cx="71.2" cy="71.2" r="70.5"/>
<path class="st1" d="M119.1,119l2,2c-12.8,12.8-30.4,20.7-49.9,20.7c-38.9,0-70.5-31.6-70.5-70.5c0-38.9,31.6-70.5,70.5-70.5
	c19.5,0,37.1,7.9,49.9,20.7l-2,2C106.9,11.1,89.9,3.5,71.2,3.5C33.8,3.5,3.5,33.8,3.5,71.2s30.3,67.7,67.7,67.7
	C89.9,138.9,106.8,131.3,119.1,119z"/>
<path class="st1" d="M96.5,71.2l12.7-11.1l-3.7-4.3L92.2,67.5l-3.5-3.1c2.4-3.7,3.8-8,3.8-12.5c0-12.6-10.2-22.8-22.8-22.8h-17V18.6
	h-5.8v10.5l0,0v24.8c-5.8,3.6-9.7,10-9.7,17.3c0,7.3,3.9,13.7,9.7,17.3v30.9h24.9c13.7,0,24.9-11.2,24.9-24.9
	c0-6.6-2.7-12.8-7.1-17.3L92,75l13.1,11.5l0.2,0.2l4-4.3L96.5,71.2z M85.1,73.5c-1.2-0.8-2.5-1.5-3.8-2c1.3-0.8,2.5-1.7,3.6-2.6
	l2.8,2.4L85.1,73.5z M52.6,57.5c1.5-0.5,3.2-0.9,4.9-0.9h8c3.5,0,7,1.3,9.6,3.6l5.4,4.7c-2.9,2.4-6.7,3.9-10.8,3.9h-17L52.6,57.5
	L52.6,57.5z M52.6,34.8h17c9.4,0,17,7.6,17,17c0,3.2-0.9,6.1-2.4,8.7L79,55.9c-3.8-3.3-8.6-5.1-13.4-5.1h-8.1
	c-1.7,0-3.3,0.2-4.9,0.6V34.8z M42.9,71.2c0-3.8,1.5-7.3,4-10v14h24.9c3.2,0,6.2,0.8,8.8,2.2l-5.4,4.7c-2.7,2.3-6.1,3.6-9.6,3.6
	h-8.1C49.4,85.8,42.9,79.3,42.9,71.2z M90.9,94.5c0,10.6-8.6,19.2-19.2,19.2H52.6V91c1.6,0.4,3.2,0.6,4.9,0.6h8
	c5,0,9.8-1.8,13.4-5.1l6.4-5.6C88.8,84.4,90.9,89.2,90.9,94.5z"/>
</svg>
