<?xml version="1.0" encoding="utf-8"?>
<!-- Generator: Adobe Illustrator 26.0.1, SVG Export Plug-In . SVG Version: 6.00 Build 0)  -->
<svg version="1.1" id="Слой_1" xmlns="http://www.w3.org/2000/svg" xmlns:xlink="http://www.w3.org/1999/xlink" x="0px" y="0px"
	 viewBox="0 0 142.5 142.5" style="enable-background:new 0 0 142.5 142.5;" xml:space="preserve">
<style type="text/css">
	.st0{fill-rule:evenodd;clip-rule:evenodd;fill:#E84142;}
	.st1{fill-rule:evenodd;clip-rule:evenodd;fill:#FFFFFF;}
</style>
<g>
	
		<ellipse transform="matrix(0.1584 -0.9874 0.9874 0.1584 -10.3844 130.3173)" class="st0" cx="71.2" cy="71.2" rx="69.3" ry="69.3"/>
	<path class="st1" d="M51.6,98.8H38.2c-2.8,0-4.2,0-5.1-0.5c-0.9-0.6-1.5-1.6-1.5-2.7c-0.1-1,0.6-2.2,2-4.7l33.2-58.5
		c1.4-2.5,2.1-3.7,3-4.2c1-0.5,2.1-0.5,3.1,0c0.9,0.5,1.6,1.7,3,4.2l6.8,11.9l0,0.1c1.5,2.7,2.3,4,2.6,5.4c0.4,1.5,0.4,3.2,0,4.7
		c-0.3,1.4-1.1,2.8-2.7,5.5L65.4,90.9l0,0.1C63.8,93.6,63,95,61.9,96c-1.2,1.1-2.6,1.9-4.1,2.4C56.4,98.8,54.8,98.8,51.6,98.8z"/>
	<path class="st1" d="M85.6,98.8h19.3c2.8,0,4.3,0,5.1-0.6c0.9-0.6,1.5-1.6,1.5-2.7c0-1-0.6-2.2-2-4.5c0-0.1-0.1-0.2-0.1-0.2
		l-9.7-16.5l-0.1-0.2c-1.4-2.3-2-3.5-2.9-3.9c-1-0.5-2.1-0.5-3.1,0c-0.9,0.5-1.6,1.7-3,4.1L81,90.9l0,0.1c-1.4,2.4-2.1,3.6-2.1,4.6
		c0.1,1.1,0.6,2.1,1.5,2.7C81.3,98.8,82.7,98.8,85.6,98.8z"/>
</g>
</svg>
