<?xml version="1.0" encoding="utf-8"?>
<!-- Generator: Adobe Illustrator 26.0.1, SVG Export Plug-In . SVG Version: 6.00 Build 0)  -->
<svg version="1.1" id="Слой_1" xmlns="http://www.w3.org/2000/svg" xmlns:xlink="http://www.w3.org/1999/xlink" x="0px" y="0px"
	 viewBox="0 0 142.5 142.5" style="enable-background:new 0 0 142.5 142.5;" xml:space="preserve">
<style type="text/css">
	.st0{fill:#F7931A;}
	.st1{fill:#FFFFFF;}
</style>
<g>
	<path class="st0" d="M135.8,87.6c-9,36.2-45.7,58.3-82,49.2c-36.2-9-58.3-45.7-49.2-81.9c9-36.2,45.7-58.3,81.9-49.2
		C122.8,14.7,144.8,51.4,135.8,87.6L135.8,87.6z"/>
	<path class="st1" d="M100,61.6c1.3-9-5.5-13.8-14.9-17.1l3-12.2l-7.4-1.8l-3,11.9c-1.9-0.5-4-0.9-5.9-1.4l3-11.9l-7.4-1.8l-3,12.2
		c-1.6-0.4-3.2-0.7-4.7-1.1l0,0l-10.2-2.6l-2,7.9c0,0,5.5,1.3,5.4,1.3c3,0.8,3.6,2.7,3.5,4.3l-3.5,13.9L48,82.6
		c-0.4,0.9-1.3,2.3-3.4,1.8c0.1,0.1-5.4-1.3-5.4-1.3l-3.7,8.5l9.7,2.4c1.8,0.5,3.6,0.9,5.3,1.4l-3.1,12.3l7.4,1.8l3-12.2
		c2,0.5,4,1.1,5.9,1.5l-3,12.1l7.4,1.8l3.1-12.3c12.7,2.4,22.2,1.4,26.2-10c3.2-9.2-0.2-14.5-6.8-18C95.4,71.4,99,68.2,100,61.6
		L100,61.6z M83.1,85.4c-2.3,9.2-17.8,4.2-22.8,3L64.3,72C69.3,73.3,85.4,75.8,83.1,85.4L83.1,85.4z M85.3,61.5
		c-2.1,8.4-15,4.1-19.2,3.1l3.7-14.8C74,50.8,87.5,52.7,85.3,61.5z"/>
</g>
</svg>
