<?xml version="1.0" encoding="utf-8"?>
<!-- Generator: Adobe Illustrator 26.0.1, SVG Export Plug-In . SVG Version: 6.00 Build 0)  -->
<svg version="1.1" id="Слой_1" xmlns="http://www.w3.org/2000/svg" xmlns:xlink="http://www.w3.org/1999/xlink" x="0px" y="0px"
	 viewBox="0 0 142.5 142.5" style="enable-background:new 0 0 142.5 142.5;" xml:space="preserve">
<style type="text/css">
	.st0{fill-rule:evenodd;clip-rule:evenodd;fill:#B8B9BB;}
	.st1{fill-rule:evenodd;clip-rule:evenodd;fill:#FFFFFF;}
</style>
<g>
	<polygon class="st0" points="59.3,32.9 48.4,73.5 39.8,76.9 36.7,88.5 45.4,85.5 39.6,109.5 102.3,109.6 106.1,94.3 68,94.3 
		72.9,75.8 83.2,71.4 86.2,60.1 76.2,63.5 84.1,33.3 	"/>
	<path class="st0" d="M71.2,2c38.3,0,69.3,31,69.3,69.3c0,38.3-31,69.3-69.3,69.3c-38.3,0-69.3-31-69.3-69.3C2.1,33,33,1.9,71.2,2
		L71.2,2z"/>
	<polygon class="st1" points="59.3,32.9 48.4,73.5 39.8,76.9 36.7,88.5 45.4,85.5 39.6,109.5 102.3,109.6 106.1,94.3 68,94.3 
		72.9,75.8 83.2,71.4 86.2,60.1 76.2,63.5 84.1,33.3 	"/>
</g>
</svg>
