<?xml version="1.0" encoding="utf-8"?>
<!-- Generator: Adobe Illustrator 26.0.1, SVG Export Plug-In . SVG Version: 6.00 Build 0)  -->
<svg version="1.1" id="Слой_1" xmlns="http://www.w3.org/2000/svg" xmlns:xlink="http://www.w3.org/1999/xlink" x="0px" y="0px"
	 viewBox="0 0 142.5 142.5" style="enable-background:new 0 0 142.5 142.5;" xml:space="preserve">
<style type="text/css">
	.st0{fill:#F30504;}
	.st1{fill:#FFFFFF;}
	.st2{fill:none;}
	.st3{fill:#FFA409;}
	.st4{fill:#FF9300;}
	.st5{fill:#FF8300;}
</style>
<g>
	<circle class="st0" cx="71.2" cy="71.2" r="69.3"/>
	<g id="Group_938" transform="translate(-953.348 -232.003)">
		<path id="Path_8575" d="M1051.7,308.6c0,0.3-0.8,1-1.6,1.6c-2.2,1.6-6.3,3.2-10.3,3.9c-2.3,0.4-4.7,0.5-5.4,0.1
			c-0.5-0.2-0.5-0.4-0.4-1c0.3-1.2,1.4-2.6,3.2-3.8c0.9-0.6,4.4-2.8,6.1-3.7c2.7-1.5,4.9-2.4,6.4-2.6c0.5-0.1,1-0.1,1.2,0
			c0.3,0.1,0.6,1,0.7,2C1051.9,305.7,1051.8,308.2,1051.7,308.6z"/>
		<path id="Path_8576" d="M1013.4,314c-0.1,0.2-0.6,0.4-1.1,0.5c-0.6,0.1-2.2,0-3.2-0.1c-3.4-0.5-7.1-1.5-9.8-2.8
			c-1.5-0.7-2.6-1.5-3.4-2.3l-0.5-0.5l0-0.6c-0.1-1.1-0.1-2.8,0.1-3.4c0.1-0.5,0.3-1,0.5-1.4c0.1-0.2,0.1-0.2,0.7-0.2
			c0.7,0,1.3,0.1,2.3,0.4c2,0.6,5,2.1,8.6,4.3c3,1.8,4.1,2.7,5,3.9C1013.2,312.6,1013.6,313.7,1013.4,314z"/>
		<path id="Path_8577" d="M1036.5,336.6c0,0-0.2,0.8-0.4,1.8c-0.2,0.9-0.4,1.7-0.4,1.7c-0.2,0-0.3,0-0.5,0h-0.5l-0.7,1.7
			c-0.4,0.9-0.7,1.8-0.8,1.9l-0.1,0.2l-0.3-0.6l-0.3-0.6v-4.5l-0.1,0c-0.3,0.1-2.2,0.3-3.1,0.4c-3.6,0.4-7.1,0.3-10.7-0.2
			c-0.6-0.1-1.1-0.1-1.1-0.1c0,0,0,1.1,0,2.3l0,2.3l-0.3,0.4c-0.1,0.2-0.3,0.4-0.3,0.4c0,0-0.2-0.2-0.6-1c-0.4-0.8-0.7-1.6-0.9-2.5
			l-0.1-0.5l-0.5,0l-0.5,0l-0.1-0.6c-0.1-0.3-0.1-0.8-0.2-1.1l0-0.5l-0.4-0.4c-0.2-0.2-0.5-0.4-0.5-0.5c-0.1-0.1-0.1-0.2-0.1-0.3
			v-0.2l2,0l2,0l0.1,0.2l0.1,0.2l0.7,0c0.4,0,1.6,0,2.7,0.1l2,0l0.5-0.8l0.5-0.8h0.7l0-1.7l0-1.7l-0.9-0.4c-2.9-1.3-4.6-2.7-5.2-4.5
			c-0.1-0.4-0.1-0.5-0.2-2.1c0-1.6,0-1.8,0.1-2.1c0.2-0.8,0.9-1.4,1.7-1.7c0.3-0.1,1-0.1,4.8-0.1l4.5,0l0.5,0.2
			c0.6,0.3,0.9,0.5,1.2,1c0.4,0.5,0.5,0.9,0.5,1.9c0,1.4-0.1,2.6-0.2,3.1c-0.2,0.7-0.5,1.3-0.9,1.9c-0.8,1-2.3,2.1-3.6,2.6l-0.4,0.1
			l0,1.7l0,1.7l0.4,0l0.4,0l0.5,0.7l0.5,0.7h2.2c1.2,0,2.3,0,2.4,0c0.2,0,0.2,0,0.4-0.3l0.2-0.3h1.9
			C1036,336.5,1036.5,336.6,1036.5,336.6z"/>
		<path id="Path_8578" d="M1027.9,341.3c-0.3,0.2-0.5,0.3-0.6,0.2c0,0-0.3-0.2-0.5-0.4l-0.4-0.4l-0.5,0.5c-1,1.1-1,1.1-1.3,1.1
			c-0.5,0-0.6,0-1.1-0.9c-0.3-0.4-0.5-0.8-0.5-0.8s-0.2,0-0.5,0l-0.5,0l-0.2,0.4l-0.2,0.4l-0.4-0.1c-0.3-0.1-0.6-0.2-0.9-0.3
			l-0.5-0.2v-0.9l4.3,0l4.3,0l0,0.4C1028.6,340.9,1028.6,340.9,1027.9,341.3z"/>
		<path id="Path_8579" class="st1" d="M1068.5,321.4c0-0.1,0-0.2,0-0.4c-3.9-0.4-15.1-0.7-25.4,7.9c0,0-3.3-15.3-19-15.3
			c-15.6,0-21.4,15.3-21.4,15.3c-8.8-9.4-20.5-8.7-24.7-8.1c0,0.1,0,0.2,0,0.3c-0.1,2.4-0.1,3.5,0.3,5c1.2,4.6,5,9.7,10.9,14.8
			c9.6,8.2,22.7,14.1,32.6,14.8c10.3,0.7,25.6-5.3,35.7-14.2c1.6-1.4,3.1-2.9,4.5-4.5c1-1.2,2.5-3.2,2.4-3.2c0,0,0,0,0.1-0.1
			c0,0,0.1-0.1,0.1-0.1c0,0,0-0.1,0.1-0.1c0,0,0.1,0,0.1-0.1c0,0,0-0.1,0.1-0.1c0,0,0.1-0.1,0-0.1c0,0,0-0.1,0-0.1s0.1,0,0.1-0.1
			s0-0.1,0.1-0.1c0,0,0.1,0,0.1-0.1c0-0.1,0.1-0.3,0.2-0.4c0.2-0.4,1.2-2.1,1.4-2.4c0.9-2.1,1.5-4,1.8-5.8
			C1068.5,323.5,1068.6,321.8,1068.5,321.4z M1027.9,341.3c-0.3,0.2-0.5,0.3-0.6,0.2c0,0-0.3-0.2-0.5-0.4l-0.4-0.4l-0.5,0.5
			c-1,1.1-1,1.1-1.3,1.1c-0.5,0-0.6,0-1.1-0.9c-0.3-0.4-0.5-0.8-0.5-0.8s-0.2,0-0.5,0l-0.5,0l-0.2,0.4l-0.2,0.4l-0.4-0.1
			c-0.3-0.1-0.6-0.2-0.9-0.3l-0.5-0.2v-0.9l4.3,0l4.3,0l0,0.4C1028.6,340.9,1028.6,340.9,1027.9,341.3z M1036,338.4
			c-0.2,0.9-0.4,1.7-0.4,1.7c-0.2,0-0.3,0-0.5,0h-0.5l-0.7,1.7c-0.4,0.9-0.7,1.8-0.8,1.9l-0.1,0.2l-0.3-0.6l-0.3-0.6v-4.5l-0.1,0
			c-0.3,0.1-2.2,0.3-3.1,0.4c-3.6,0.4-7.1,0.3-10.7-0.2c-0.6-0.1-1.1-0.1-1.1-0.1c0,0,0,1.1,0,2.3l0,2.3l-0.3,0.4
			c-0.1,0.2-0.3,0.4-0.3,0.4c0,0-0.2-0.2-0.6-1c-0.4-0.8-0.7-1.6-0.9-2.5l-0.1-0.5l-0.5,0l-0.5,0l-0.1-0.6c-0.1-0.3-0.1-0.8-0.2-1.1
			l0-0.5l-0.4-0.4c-0.2-0.2-0.5-0.4-0.5-0.5c-0.1-0.1-0.1-0.2-0.1-0.3v-0.2l2,0l2,0l0.1,0.2l0.1,0.2l0.7,0c0.4,0,1.6,0,2.7,0.1l2,0
			l0.5-0.8l0.5-0.8h0.7l0-1.7l0-1.7l-0.9-0.4c-2.9-1.3-4.6-2.7-5.2-4.5c-0.1-0.4-0.1-0.5-0.2-2.1c0-1.6,0-1.8,0.1-2.1
			c0.2-0.8,0.9-1.4,1.7-1.7c0.3-0.1,1-0.1,4.8-0.1l4.5,0l0.5,0.2c0.6,0.3,0.9,0.5,1.2,1c0.4,0.5,0.5,0.9,0.5,1.9
			c0,1.4-0.1,2.6-0.2,3.1c-0.2,0.7-0.5,1.3-0.9,1.9c-0.8,1-2.3,2.1-3.6,2.6l-0.4,0.1l0,1.7l0,1.7l0.4,0l0.4,0l0.5,0.7l0.5,0.7h2.2
			c1.2,0,2.3,0,2.4,0c0.2,0,0.2,0,0.4-0.3l0.2-0.3h1.9c1.4,0,1.9,0,1.9,0.1C1036.5,336.7,1036.2,337.5,1036,338.4z"/>
		<path id="Path_8580" class="st2" d="M978,320.8"/>
		<path id="Path_8582" class="st3" d="M1068.4,319.8c0-0.7-0.1-1.8-0.1-2.3c-0.7-7.4-2.6-13.4-6.2-19.8c-0.1-0.2-0.3-0.5-0.4-0.7
			c0,0,0-0.1-0.1-0.1l0,0c0.5-1.5,2.6-7.8,4.2-15.1c2.2-9.8,3.6-21.3-0.7-24.8c0,0-7.5-0.6-17.5,9.3c-2.7,2.7-5.2,5.7-7.4,8.8
			l-0.7-0.2c-4-1.3-8.2-2.1-12.4-2.4c-1.3-0.1-6-0.1-7.6,0c-4.7,0.3-8.2,1-12.3,2.4c-0.2,0.1-0.3,0.1-0.5,0.2
			c-2.3-3.1-4.8-6.1-7.7-8.7c-10.4-9.9-18.2-9.3-18.2-9.3c-4.6,3.6-3,15.6-0.7,25.7c1.6,6.7,3.5,12.6,4.2,14.8
			c0,0.1-0.1,0.2-0.2,0.4c-3.8,7.7-5.8,15.1-6.3,23c4.2-0.6,15.9-1.3,24.7,8.1c0,0,5.8-15.3,21.4-15.3c15.6,0,19,15.3,19,15.3
			c10.3-8.5,21.5-8.3,25.4-7.9C1068.5,320.8,1068.4,320.3,1068.4,319.8z M987.6,291.4c0,0-6.1-15.2-4.5-23.9l0,0
			c0.3-1.5,0.7-2.8,1.5-3.7c0,0,6.9,0.7,18,13.1c0,0-2.1,1-4.9,3.2c0,0,0,0,0,0C994.6,282.4,990.6,286.1,987.6,291.4L987.6,291.4z
			 M1013.4,314c-0.1,0.2-0.6,0.4-1.1,0.5c-0.6,0.1-2.2,0-3.2-0.1c-3.4-0.5-7.1-1.5-9.8-2.8c-1.5-0.7-2.6-1.5-3.4-2.3l-0.5-0.5l0-0.6
			c-0.1-1.1-0.1-2.8,0.1-3.4c0.1-0.5,0.3-1,0.5-1.4c0.1-0.2,0.1-0.2,0.7-0.2c0.7,0,1.3,0.1,2.3,0.4c2,0.6,5,2.1,8.6,4.3
			c3,1.8,4.1,2.7,5,3.9C1013.2,312.6,1013.6,313.7,1013.4,314z M1051.7,308.6c0,0.3-0.8,1-1.6,1.6c-2.2,1.6-6.3,3.2-10.3,3.9
			c-2.3,0.4-4.7,0.5-5.4,0.1c-0.5-0.2-0.5-0.4-0.4-1c0.3-1.2,1.4-2.6,3.2-3.8c0.9-0.6,4.4-2.8,6.1-3.7c2.7-1.5,4.9-2.4,6.4-2.6
			c0.5-0.1,1-0.1,1.2,0c0.3,0.1,0.6,1,0.7,2C1051.9,305.7,1051.8,308.2,1051.7,308.6z M1049,280L1049,280c-2.8-2.2-4.8-3.2-4.8-3.2
			c10.8-12.4,17.4-13.1,17.4-13.1c0.7,1,1.2,2.3,1.5,3.7l0,0c1.5,8.7-4.4,23.9-4.4,23.9C1056.3,287,1053,283.1,1049,280L1049,280z"
			/>
		<path id="Path_8583" class="st2" d="M1040.3,275.1c0,0,0,0.1-0.1,0.1"/>
		<path id="Path_8584" class="st2" d="M1061.7,296.9c-0.1,0.2-0.1,0.3-0.1,0.3"/>
		<g id="Group_934">
			<g id="Group_933">
				<g id="Group_932">
					<path id="Path_8585" class="st4" d="M1063.1,267.5c-1.3-0.2-7.3-0.2-14.1,12.5l0,0c-2.7-2.2-4.8-3.2-4.8-3.2
						c10.8-12.4,17.4-13.1,17.4-13.1C1062.4,264.7,1062.9,266,1063.1,267.5z"/>
				</g>
				<path id="Path_8586" class="st5" d="M1058.8,291.4c-2.5-4.4-5.8-8.3-9.7-11.4c6.8-12.7,12.8-12.7,14.1-12.5l0,0
					C1064.6,276.2,1058.8,291.4,1058.8,291.4z"/>
				<path id="Path_8587" class="st5" d="M1063.4,267.5c-0.1,0-0.2,0-0.2,0L1063.4,267.5z"/>
			</g>
		</g>
		<path id="Path_8588" class="st2" d="M1007.3,275.8c-0.2-0.2-0.3-0.5-0.5-0.7"/>
		<path id="Path_8589" class="st2" d="M984.5,297.5c0.2,0.6,0.3,0.8,0.3,0.8"/>
		<g id="Group_937">
			<g id="Group_936">
				<g id="Group_935">
					<path id="Path_8590" class="st4" d="M1002.6,276.8c0,0-2.1,1-4.9,3.2c0,0,0,0,0,0c-7-12.8-13.2-12.7-14.6-12.5
						c0.3-1.5,0.7-2.8,1.5-3.7C984.6,263.7,991.5,264.4,1002.6,276.8z"/>
				</g>
				<path id="Path_8591" class="st5" d="M997.6,280c-3.1,2.4-7,6.1-10.1,11.4c0,0-6.1-15.2-4.5-23.9l0,0
					C984.4,267.3,990.6,267.3,997.6,280z"/>
				<path id="Path_8592" class="st5" d="M983.1,267.5c-0.1,0-0.2,0-0.3,0L983.1,267.5z"/>
			</g>
		</g>
		<path id="Path_8593" class="st1" d="M1042.3,299.8c0,0-5.2,0.3-4.6-3.7c0.7-4.1,4.7-4.6,5.9-4.4c1.1,0.2,5.7,1.8,4.9,5.2
			c-0.8,3.4-2,2.8-2.6,2.9C1045.2,300,1042.3,299.8,1042.3,299.8z"/>
		<path id="Path_8594" class="st1" d="M1003.9,299.8c0,0-5.2,0.3-4.6-3.7c0.7-4.1,4.7-4.6,5.9-4.4c1.1,0.2,5.7,1.8,4.9,5.2
			c-0.8,3.4-2,2.8-2.6,2.9C1006.8,300,1003.9,299.8,1003.9,299.8z"/>
	</g>
</g>
</svg>
