<?xml version="1.0" encoding="utf-8"?>
<!-- Generator: Adobe Illustrator 26.0.1, SVG Export Plug-In . SVG Version: 6.00 Build 0)  -->
<svg version="1.1" id="Слой_1" xmlns="http://www.w3.org/2000/svg" xmlns:xlink="http://www.w3.org/1999/xlink" x="0px" y="0px"
	 viewBox="0 0 142.5 142.5" style="enable-background:new 0 0 142.5 142.5;" xml:space="preserve">
<style type="text/css">
	.st0{fill:url(#SVGID_1_);}
	.st1{fill:#FFFFFF;}
</style>
<g>
	<linearGradient id="SVGID_1_" gradientUnits="userSpaceOnUse" x1="131.9989" y1="9.3021" x2="19.3284" y2="124.1964">
		<stop  offset="0" style="stop-color:#00FFA3"/>
		<stop  offset="1" style="stop-color:#DC1FFF"/>
	</linearGradient>
	<circle class="st0" cx="71.2" cy="71.2" r="69.3"/>
	<g>
		<path class="st1" d="M38.4,91.3c0.6-0.6,1.4-0.9,2.2-0.9h77.6c1.4,0,2.1,1.7,1.1,2.7l-15.3,15.3c-0.6,0.6-1.4,0.9-2.2,0.9H24.2
			c-1.4,0-2.1-1.7-1.1-2.7L38.4,91.3z"/>
		<path class="st1" d="M38.4,34.1c0.6-0.6,1.4-0.9,2.2-0.9h77.6c1.4,0,2.1,1.7,1.1,2.7l-15.3,15.3c-0.6,0.6-1.4,0.9-2.2,0.9H24.2
			c-1.4,0-2.1-1.7-1.1-2.7L38.4,34.1z"/>
		<path class="st1" d="M104.1,62.5c-0.6-0.6-1.4-0.9-2.2-0.9H24.2c-1.4,0-2.1,1.7-1.1,2.7l15.3,15.3c0.6,0.6,1.4,0.9,2.2,0.9h77.6
			c1.4,0,2.1-1.7,1.1-2.7L104.1,62.5z"/>
	</g>
</g>
</svg>
