<?xml version="1.0" encoding="utf-8"?>
<!-- Generator: Adobe Illustrator 26.0.1, SVG Export Plug-In . SVG Version: 6.00 Build 0)  -->
<svg version="1.1" id="Слой_1" xmlns="http://www.w3.org/2000/svg" xmlns:xlink="http://www.w3.org/1999/xlink" x="0px" y="0px"
	 viewBox="0 0 142.5 142.5" style="enable-background:new 0 0 142.5 142.5;" xml:space="preserve">
<style type="text/css">
	.st0{fill:#53AE94;}
	.st1{fill:#FFFFFF;}
</style>
<g>
	<path class="st0" d="M71.2,1.9c38.3,0,69.3,31,69.3,69.3c0,38.3-31,69.3-69.3,69.3c-38.3,0-69.3-31-69.3-69.3
		C1.9,33,33,1.9,71.2,1.9"/>
	<path class="st1" d="M79.8,62V51.7h23.6V36H39.2v15.7h23.6V62c-19.2,0.9-33.6,4.7-33.6,9.2c0,4.5,14.4,8.3,33.6,9.2v33h17v-33
		c19.1-0.9,33.5-4.7,33.5-9.2C113.3,66.7,98.9,62.9,79.8,62 M79.8,77.7L79.8,77.7c-0.5,0-3,0.2-8.5,0.2c-4.4,0-7.5-0.1-8.6-0.2v0
		c-16.9-0.7-29.6-3.7-29.6-7.2s12.6-6.5,29.6-7.2v11.5c1.1,0.1,4.3,0.3,8.7,0.3c5.3,0,7.9-0.2,8.4-0.3V63.2
		c16.9,0.8,29.5,3.7,29.5,7.2C109.3,73.9,96.7,76.9,79.8,77.7"/>
</g>
</svg>
